<?xml version="1.0" encoding="utf-8"?>
<!-- Generator: Adobe Illustrator 24.0.0, SVG Export Plug-In . SVG Version: 6.00 Build 0)  -->
<svg version="1.1" id="Layer_1" xmlns="http://www.w3.org/2000/svg" xmlns:xlink="http://www.w3.org/1999/xlink" x="0px" y="0px"
	 viewBox="0 0 256 256" enable-background="new 0 0 256 256" xml:space="preserve">
<g>
</g>
<g>
	<path fill="#F0C020" d="M159.671,120.051l-42.562,62.698c-2.416,3.557-7.931,0.93-6.747-3.169l13.037-45.076H99.467
		c-2.521,0-4.332-2.423-3.627-4.839l16.185-55.373c0.458-1.592,1.951-2.712,3.62-2.712h24.193c2.529,0,4.325,2.416,3.627,4.817
		l-10.854,37.758h23.933C159.58,114.156,161.362,117.551,159.671,120.051z"/>
	<path fill="#72C2E9" d="M241.71,157.165l-14.544-8.39c1.407-6.71,2.139-13.649,2.139-20.774c0-7.125-0.731-14.064-2.139-20.774
		l14.544-8.39c4.997-2.891,6.699-9.274,3.819-14.271l-21.145-36.628c-2.892-4.997-9.263-6.71-14.271-3.819l-14.555,8.401
		c-10.311-9.231-22.509-16.377-35.962-20.796V14.942c0-5.761-4.681-10.442-10.442-10.442h-42.301
		c-5.761,0-10.442,4.681-10.442,10.442v16.781c-13.453,4.419-25.651,11.565-35.962,20.796l-14.555-8.401
		c-5.008-2.891-11.38-1.178-14.271,3.819L10.476,84.564c-2.88,4.997-1.178,11.38,3.819,14.271l14.544,8.39
		c-1.396,6.71-2.128,13.649-2.128,20.774c0,7.125,0.731,14.064,2.128,20.774l-14.544,8.39c-4.997,2.891-6.699,9.274-3.819,14.271
		l21.145,36.628c2.892,4.997,9.263,6.71,14.271,3.819l14.555-8.401c10.311,9.231,22.509,16.377,35.962,20.796v16.781
		c0,5.761,4.681,10.442,10.442,10.442h42.301c5.761,0,10.442-4.681,10.442-10.442v-16.781c13.453-4.419,25.651-11.565,35.962-20.796
		l14.555,8.401c5.008,2.891,11.38,1.178,14.271-3.819l21.145-36.628C248.409,166.439,246.707,160.056,241.71,157.165z
		 M128.008,198.017c-38.603,0.002-70.015-31.28-70.015-70.017c0-38.668,31.347-70.015,70.015-70.015S198.023,89.332,198.023,128
		C198.023,166.72,166.619,198.015,128.008,198.017z"/>
	<path fill="#F7E4B0" d="M125.428,152.689c-1.143-0.775-1.439-2.33-0.664-3.472l1.685-2.482c0.775-1.142,2.329-1.44,3.473-0.665
		c1.143,0.775,1.439,2.33,0.664,3.472l-1.685,2.482C128.128,153.165,126.576,153.467,125.428,152.689z M132.73,141.934
		c-1.143-0.775-1.439-2.33-0.664-3.473l8.014-11.805h-20.747c-1.66,0-2.862-1.592-2.402-3.19l12.238-42.576
		c0.38-1.328,1.766-2.096,3.093-1.712c1.327,0.381,2.094,1.767,1.712,3.093l-11.32,39.386h22.146c2.003,0,3.193,2.246,2.068,3.904
		l-10.664,15.709C135.427,142.412,133.873,142.709,132.73,141.934z"/>
	<path fill="#C4E4FD" d="M128.009,210.478c-41.422,0-75.13-30.205-81.442-69.086c-0.221-1.363,0.704-2.647,2.067-2.869
		c1.368-0.221,2.647,0.704,2.868,2.067c5.938,36.572,37.646,64.888,76.507,64.888c42.887,0,77.477-34.58,77.477-77.477
		c0-20.729-8.05-40.195-22.666-54.813c-0.977-0.976-0.977-2.559,0-3.536c0.977-0.976,2.559-0.976,3.535,0
		c15.562,15.562,24.131,36.283,24.131,58.348C210.486,173.65,173.671,210.478,128.009,210.478z M45.551,131.137
		c-0.038-1.027-0.058-2.058-0.059-3.092c-0.001-1.381,1.117-2.501,2.498-2.502c0,0,0.001,0,0.002,0c1.38,0,2.499,1.118,2.5,2.498
		c0.001,0.973,0.019,1.943,0.055,2.911c0.052,1.379-1.025,2.54-2.405,2.591C46.813,133.605,45.603,132.554,45.551,131.137z"/>
	<path d="M181.643,118.869l-2.693,3.007c-2.341-19.141-15.494-35.757-33.812-42.256l0.727-2.53c1.164-3.951-1.832-7.998-6.029-8.01
		h-24.19c-2.82,0.01-5.24,1.83-6.02,4.52l-2.162,7.385c-14.159,6.195-24.961,18.656-29.001,33.592
		c-0.36,1.333,0.428,2.706,1.76,3.066c1.339,0.362,2.708-0.433,3.066-1.76c3.267-12.075,11.424-22.369,22.274-28.403l-2.128,7.27
		c-0.39,1.337,0.383,2.719,1.7,3.11c1.3,0.38,2.729-0.41,3.1-1.7c0-0.01,0-0.01,0-0.01l6.19-21.16c0.13-0.5,0.67-0.91,1.2-0.91
		h24.21c0.798,0,1.474,0.752,1.22,1.64l-10.85,37.75c-0.458,1.635,0.788,3.19,2.409,3.19h23.931c1.035,0,1.625,1.165,1.05,1.99
		l-42.55,62.69c-0.952,1.277-2.658,0.232-2.29-1.05c1.726-5.968,12.403-42.888,13.04-45.09c0.473-1.613-0.762-3.2-2.4-3.2h-23.93
		c-0.918,0-1.495-0.948-1.23-1.61l4.391-15.04c0.39-1.32-0.38-2.71-1.7-3.1c-1.29-0.38-2.72,0.42-3.101,1.7l-4.39,15.01
		c-1.17,3.925,1.798,8.027,6.03,8.04h20.609l-9.781,33.808c-15.38-6.374-26.115-20.519-28.223-36.871l2.913,2.608
		c1.029,0.921,2.61,0.834,3.53-0.195c0.921-1.028,0.834-2.609-0.194-3.53l-7.464-6.683c-1.019-0.913-2.616-0.825-3.53,0.195
		l-6.683,7.463c-0.921,1.028-0.834,2.609,0.194,3.53c1.033,0.925,2.614,0.83,3.53-0.195l2.681-2.993
		c2.266,19.085,14.969,34.721,31.847,41.503c-0.887,3.065-2.53,6.576,0.82,9.589c2.89,2.58,7.292,2.193,9.46-1.07l3.475-5.12
		c25.678,2.635,48.457-13.852,54.895-37.62c0.359-1.33-0.431-2.7-1.76-3.06c-1.311-0.36-2.711,0.46-3.061,1.76
		c-5.557,20.525-24.741,35.122-46.823,34.13l35.833-52.789c2.817-4.144-0.17-9.8-5.189-9.8h-20.61l7.819-27.222
		c16.25,5.888,27.938,20.616,30.177,37.617l-2.904-2.6c-1.029-0.921-2.61-0.834-3.53,0.195c-0.921,1.028-0.834,2.609,0.194,3.53
		l7.464,6.683c1.001,0.896,2.591,0.849,3.53-0.195l6.683-7.463c0.921-1.028,0.834-2.609-0.194-3.53
		C184.144,117.753,182.563,117.84,181.643,118.869z"/>
	<path d="M102.325,107.46c1.496,0.39,2.761-0.498,3.101-1.7c0.401-1.356-0.391-2.735-1.69-3.1c-1.3-0.38-2.729,0.41-3.1,1.69
		C100.246,105.68,101.006,107.07,102.325,107.46z"/>
	<path d="M75.275,214.54c-0.699,1.192-0.282,2.72,0.91,3.42c1.157,0.669,2.707,0.299,3.42-0.92c0.681-1.19,0.271-2.72-0.92-3.41
		C77.525,212.96,75.935,213.39,75.275,214.54z"/>
	<path d="M247.695,83.32l-21.149-36.63c-3.537-6.123-11.439-8.357-17.69-4.74l-12.99,7.51c-10-8.64-21.359-15.21-33.77-19.53V14.94
		c0-7.13-5.81-12.94-12.94-12.94h-42.3c-7.14,0-12.939,5.81-12.95,12.94v14.99c-12.409,4.32-23.77,10.89-33.76,19.53l-13-7.51
		c-6.26-3.622-14.16-1.372-17.689,4.74L8.315,83.32c-3.606,6.202-1.406,14.136,4.73,17.68l12.99,7.5
		c-2.427,12.786-2.427,26.203,0,39.01L13.046,155c-6.12,3.543-8.342,11.446-4.73,17.69l21.141,36.62
		c3.535,6.123,11.43,8.357,17.68,4.74l13.01-7.51c2.38,2.06,4.88,4.03,7.44,5.87c1.08,0.77,2.71,0.5,3.479-0.58
		c0.825-1.141,0.533-2.694-0.569-3.49c-2.91-2.08-5.73-4.35-8.381-6.72c-0.79-0.7-2.01-0.83-2.92-0.3l-14.55,8.4
		c-3.817,2.185-8.637,0.934-10.859-2.91l-21.141-36.62c-2.154-3.732-0.995-8.615,2.9-10.86l14.54-8.39
		c0.939-0.54,1.42-1.62,1.2-2.67c-2.677-12.834-2.843-26.923,0-40.53c0.22-1.07-0.261-2.14-1.2-2.68l-14.54-8.39
		c-3.711-2.151-5.146-6.969-2.9-10.86l21.141-36.62c2.255-3.901,7.093-5.066,10.859-2.91l14.55,8.4c0.91,0.53,2.13,0.4,2.92-0.3
		c10.261-9.18,22.061-16.01,35.07-20.28c1.03-0.34,1.72-1.29,1.72-2.38V14.94c0.011-4.37,3.58-7.93,7.95-7.94h42.3
		c4.37,0.01,7.931,3.57,7.94,7.94v16.78c0,1.08,0.69,2.04,1.72,2.38c13.01,4.27,24.811,11.1,35.07,20.28
		c0.79,0.7,2.01,0.83,2.92,0.3l14.56-8.4c3.733-2.154,8.588-1.001,10.851,2.91l21.149,36.62c2.158,3.791,0.954,8.617-2.909,10.86
		l-14.54,8.39c-0.94,0.54-1.42,1.62-1.2,2.68c2.764,13.108,2.809,27.177,0,40.52c-0.22,1.06,0.26,2.14,1.2,2.68l14.54,8.39
		c3.683,2.12,5.15,6.924,2.909,10.86l-21.149,36.62c-2.24,3.871-7.087,5.081-10.851,2.91l-14.56-8.4c-0.91-0.53-2.13-0.4-2.92,0.3
		c-10.26,9.18-22.061,16.01-35.07,20.28c-1.029,0.34-1.72,1.29-1.72,2.38v16.78c-0.01,4.37-3.57,7.93-7.94,7.94h-42.3
		c-4.37-0.01-7.939-3.57-7.95-7.94v-16.78c0-1.09-0.689-2.04-1.72-2.38c-3.33-1.09-6.64-2.38-9.83-3.82
		c-1.22-0.56-2.75,0.03-3.3,1.25c-0.581,1.263-0.01,2.738,1.24,3.3c0.01,0,0.01,0.01,0.01,0.01c2.81,1.26,5.7,2.42,8.6,3.43v14.99
		c0.011,7.13,5.811,12.94,12.95,12.94h42.3c7.131,0,12.94-5.81,12.94-12.94v-14.99c12.41-4.32,23.77-10.89,33.76-19.53l13,7.51
		c6.234,3.589,14.118,1.439,17.69-4.73l21.149-36.63c3.592-6.263,1.39-14.147-4.729-17.69l-13-7.49
		c2.364-12.346,2.541-25.751,0-39.02l12.99-7.49C249.034,97.49,251.311,89.625,247.695,83.32z"/>
	<path d="M200.525,128c0-10.53-2.21-20.69-6.569-30.2c-0.561-1.21-2.091-1.79-3.32-1.23c-1.25,0.57-1.8,2.06-1.23,3.32
		c0,0,0.011,0,0.011,0.01c4.05,8.84,6.109,18.29,6.109,28.1c0,37.225-30.112,67.499-67.52,67.52c-37.196,0-67.51-30.092-67.51-67.52
		c0-37.417,30.275-67.5,67.51-67.52c19.56,0.01,38.14,8.48,50.99,23.26c0.869,1.01,2.52,1.12,3.529,0.25
		c1.04-0.9,1.15-2.48,0.24-3.53c-13.297-15.32-32.933-24.97-54.76-24.97c-40.121,0-72.51,32.499-72.51,72.51
		c0,40.263,32.645,72.52,72.51,72.52C168.121,200.478,200.525,168.021,200.525,128z"/>
	<path d="M188.235,92.19c1.16-0.75,1.49-2.3,0.75-3.46c-0.729-1.12-2.34-1.47-3.46-0.74c-1.171,0.753-1.489,2.299-0.75,3.45
		C185.544,92.616,187.061,92.933,188.235,92.19z"/>
</g>
</svg>
